<svg width="800" height="600" viewBox="0 0 800 600" fill="none" xmlns="http://www.w3.org/2000/svg">
  <!-- Earth Background -->
  <defs>
    <radialGradient id="earthGradient" cx="0.3" cy="0.3" r="0.7">
      <stop offset="0%" stop-color="#87CEEB"/>
      <stop offset="50%" stop-color="#4682B4"/>
      <stop offset="100%" stop-color="#191970"/>
    </radialGradient>
    <linearGradient id="spaceGradient" x1="0%" y1="0%" x2="100%" y2="100%">
      <stop offset="0%" stop-color="#000011"/>
      <stop offset="100%" stop-color="#000033"/>
    </linearGradient>
  </defs>
  
  <!-- Space Background -->
  <rect width="800" height="600" fill="url(#spaceGradient)"/>
  
  <!-- Stars -->
  <circle cx="100" cy="80" r="1" fill="white" opacity="0.8"/>
  <circle cx="200" cy="120" r="1.5" fill="white" opacity="0.6"/>
  <circle cx="350" cy="90" r="1" fill="white" opacity="0.9"/>
  <circle cx="500" cy="150" r="1" fill="white" opacity="0.7"/>
  <circle cx="650" cy="100" r="1.5" fill="white" opacity="0.8"/>
  <circle cx="720" cy="180" r="1" fill="white" opacity="0.6"/>
  <circle cx="150" cy="250" r="1" fill="white" opacity="0.7"/>
  <circle cx="600" cy="280" r="1" fill="white" opacity="0.9"/>
  
  <!-- Earth Curve (Bottom) -->
  <ellipse cx="400" cy="800" rx="600" ry="400" fill="url(#earthGradient)"/>
  
  <!-- ISS Structure -->
  <!-- Central Module -->
  <rect x="350" y="280" width="100" height="40" rx="20" fill="#E5E7EB" stroke="#9CA3AF" stroke-width="2"/>
  
  <!-- Solar Panels Left -->
  <rect x="200" y="250" width="120" height="100" rx="5" fill="#1E40AF" stroke="#3B82F6" stroke-width="1"/>
  <g stroke="#60A5FA" stroke-width="0.5">
    <line x1="210" y1="260" x2="310" y2="260"/>
    <line x1="210" y1="270" x2="310" y2="270"/>
    <line x1="210" y1="280" x2="310" y2="280"/>
    <line x1="210" y1="290" x2="310" y2="290"/>
    <line x1="210" y1="300" x2="310" y2="300"/>
    <line x1="210" y1="310" x2="310" y2="310"/>
    <line x1="210" y1="320" x2="310" y2="320"/>
    <line x1="210" y1="330" x2="310" y2="330"/>
    <line x1="210" y1="340" x2="310" y2="340"/>
  </g>
  
  <!-- Solar Panels Right -->
  <rect x="480" y="250" width="120" height="100" rx="5" fill="#1E40AF" stroke="#3B82F6" stroke-width="1"/>
  <g stroke="#60A5FA" stroke-width="0.5">
    <line x1="490" y1="260" x2="590" y2="260"/>
    <line x1="490" y1="270" x2="590" y2="270"/>
    <line x1="490" y1="280" x2="590" y2="280"/>
    <line x1="490" y1="290" x2="590" y2="290"/>
    <line x1="490" y1="300" x2="590" y2="300"/>
    <line x1="490" y1="310" x2="590" y2="310"/>
    <line x1="490" y1="320" x2="590" y2="320"/>
    <line x1="490" y1="330" x2="590" y2="330"/>
    <line x1="490" y1="340" x2="590" y2="340"/>
  </g>
  
  <!-- Connection Arms -->
  <rect x="320" y="295" width="30" height="10" fill="#9CA3AF"/>
  <rect x="450" y="295" width="30" height="10" fill="#9CA3AF"/>
  
  <!-- Additional Modules -->
  <rect x="320" y="280" width="30" height="40" rx="15" fill="#D1D5DB" stroke="#9CA3AF" stroke-width="1"/>
  <rect x="450" y="280" width="30" height="40" rx="15" fill="#D1D5DB" stroke="#9CA3AF" stroke-width="1"/>
  
  <!-- Antennas -->
  <line x1="400" y1="280" x2="400" y2="240" stroke="#6B7280" stroke-width="2"/>
  <circle cx="400" cy="240" r="3" fill="#EF4444"/>
  
  <!-- Docking Ports -->
  <circle cx="350" cy="300" r="6" fill="#374151" stroke="#6B7280" stroke-width="1"/>
  <circle cx="450" cy="300" r="6" fill="#374151" stroke="#6B7280" stroke-width="1"/>
  
  <!-- Window/Cupola -->
  <circle cx="400" cy="285" r="8" fill="#60A5FA" opacity="0.7" stroke="#3B82F6" stroke-width="1"/>
  
  <!-- Radiators -->
  <rect x="370" y="230" width="60" height="8" fill="#F59E0B" stroke="#D97706" stroke-width="1"/>
  <rect x="370" y="350" width="60" height="8" fill="#F59E0B" stroke="#D97706" stroke-width="1"/>
</svg>
